<?xml version="1.0" encoding="utf-8"?>
<!-- Generator: Adobe Illustrator 27.0.1, SVG Export Plug-In . SVG Version: 6.00 Build 0)  -->
<svg version="1.1" id="Layer_1" xmlns="http://www.w3.org/2000/svg" xmlns:xlink="http://www.w3.org/1999/xlink" x="0px" y="0px"
	 viewBox="0 0 222 202.6" style="enable-background:new 0 0 222 202.6;" xml:space="preserve">
<g>
	<polygon points="172.7,58.8 176.6,63.7 192.2,51.1 196.7,56.6 200.9,53.3 188,37.3 183.8,40.7 188.3,46.3 	"/>
	<rect x="131.6" y="19.3" transform="matrix(0.423 -0.9061 0.9061 0.423 62.9596 143.6847)" width="25.4" height="6.2"/>
	<path d="M155.5,44.1c3.7,2.7,9.4,3.1,12.5-1.2c2.5-3.4,1.8-6.6-0.8-9.8l-2.1-2.7c-1-1.3-1.5-2.4-0.7-3.5c0.8-1.1,2.1-1.3,3.6-0.2
		c1.5,1.1,1.4,2.8,0.5,4.1l4.6,3.3c2.5-3.7,2-8.5-2.1-11.5c-4-2.9-8.8-2.9-11.8,1.2c-2.4,3.2-1.4,6.5,1.1,9.6l2.2,2.7
		c1.1,1.3,1.2,2.5,0.4,3.7c-0.9,1.2-2.7,1.5-4.3,0.4c-1.9-1.4-1.9-3.2-1-4.8l-4.8-3.5C150.3,36.1,151,40.7,155.5,44.1z"/>
	<path d="M196.2,110.6l6.7-0.4l0.2,2.5l-6.3,6.5l0.5,8.3l7-7.4c1.6,3.2,5,5.2,8.9,5c5.3-0.3,9.1-4.6,8.8-10l-0.8-12.4l-25.4,1.6
		L196.2,110.6z M216.3,109.3l0.3,5.3c0.1,2.3-1.3,4.2-3.8,4.3c-2.5,0.2-4.1-1.5-4.3-3.8l-0.3-5.3L216.3,109.3z"/>
	<path d="M188.8,85.8c3.1,7.7,10.6,10.3,17.4,7.5c6.8-2.8,10.3-9.8,7.1-17.6c-3.1-7.7-10.6-10.3-17.4-7.5
		C189.2,71.1,185.7,78.1,188.8,85.8z M208.4,77.8c1.8,4.5-0.8,8.3-4.5,9.8c-3.7,1.5-8.3,0.7-10.1-3.8c-1.8-4.5,0.8-8.3,4.6-9.8
		C202.1,72.5,206.6,73.3,208.4,77.8z"/>
	<polygon points="113.9,16.4 124.3,18.4 122.5,28.2 128.5,29.3 133.3,4.3 127.3,3.2 125.4,12.8 115,10.8 116.9,1.2 110.8,0 106,25 
		112.1,26.2 	"/>
	<polygon points="187.8,165 192.8,166.9 197,155.9 201.5,157.6 197.5,168.2 202.5,170.1 206.5,159.5 210.7,161.1 206.6,172 
		211.6,173.9 217.9,157.3 194.1,148.2 	"/>
	<path d="M199.8,181.1c-3.3-2.3-6.5-1.2-9.5,1.3l-2.7,2.3c-1.3,1.1-2.5,1.3-3.6,0.5c-1.3-0.9-1.5-2.7-0.5-4.3c1.4-2,3.1-2,4.8-1.1
		l3.4-4.8c-4.3-2.5-9-1.7-12.2,3c-2.6,3.8-2.9,9.5,1.5,12.5c3.5,2.4,6.6,1.7,9.8-1l2.6-2.2c1.3-1.1,2.3-1.6,3.5-0.8
		c1.1,0.8,1.3,2.1,0.3,3.6c-1.1,1.5-2.8,1.5-4.1,0.6l-3.2,4.6c3.7,2.4,8.5,1.8,11.4-2.4C204.1,188.8,204,184,199.8,181.1z"/>
	<rect x="205.3" y="126.4" transform="matrix(0.1634 -0.9866 0.9866 0.1634 37.1258 321.9518)" width="6.2" height="25.4"/>
	<polygon points="26.6,57.1 19.5,40.9 35.1,49.1 38.4,46 27,21.9 22.4,26.2 29.7,40.2 15.2,32.9 11.8,36 18.1,51 4.6,42.7 0,47 
		23.3,60.1 	"/>
	<rect x="44.1" y="12.9" transform="matrix(0.8844 -0.4666 0.4666 0.8844 -6.5098 24.9612)" width="6.2" height="25.4"/>
	<rect x="91.1" y="0.1" transform="matrix(0.9993 -3.796267e-02 3.796267e-02 0.9993 -0.4192 3.5838)" width="6.2" height="25.4"/>
	<polygon points="69.1,29.9 66.1,17.6 77.8,27.7 84.8,26 72.6,15.5 78.3,1.4 71.5,3.1 65.9,16.8 63,5.1 57,6.6 63.1,31.3 	"/>
	<path d="M100.3,38.1C54.8,38.1,18,74.9,18,120.3c0,45.4,36.8,82.3,82.3,82.3c45.4,0,82.3-36.8,82.3-82.3
		C182.5,74.9,145.7,38.1,100.3,38.1z M127.4,86h9v32.2h-9V86z M108.2,71.8c0.5,0,0.9,0.2,1.3,0.5c0.2-1.3,1.2-2.3,2.6-2.3
		c0.1,0,0.1,0,0.2,0c0-0.2-0.1-0.3-0.1-0.5c0-1.1,0.9-1.9,1.9-1.9c0.4,0,0.7,0.1,1,0.3c-0.1-0.3-0.1-0.6-0.1-0.9
		c0-1.8,1.5-3.3,3.3-3.3c1.6,0,2.9,1.1,3.2,2.6c0.4-0.1,0.9-0.2,1.4-0.2c2.5,0,4.6,2,4.6,4.6c0,2.5-2,4.6-4.6,4.6
		c-1.4,0-2.7-0.7-3.5-1.7c-0.5,0.8-1.4,1.4-2.5,1.4c-1,0-1.8-0.5-2.4-1.2c-0.4,0.9-1.3,1.5-2.3,1.5c-0.9,0-1.7-0.5-2.2-1.2
		c-0.2,0.7-0.9,1.2-1.7,1.2c-1,0-1.8-0.8-1.8-1.8C106.5,72.6,107.3,71.8,108.2,71.8z M123.7,93.3v24.9h-9V93.3H123.7z M111.1,77.9
		v40.3h-9V77.9H111.1z M83.1,66c0.5,0,0.9,0.2,1.3,0.5c0.2-1.3,1.2-2.3,2.6-2.3c0.1,0,0.1,0,0.2,0c0-0.2-0.1-0.3-0.1-0.5
		c0-1.1,0.9-1.9,1.9-1.9c0.4,0,0.7,0.1,1,0.3c-0.1-0.3-0.1-0.6-0.1-0.9c0-1.8,1.5-3.3,3.3-3.3c1.6,0,2.9,1.1,3.2,2.6
		c0.4-0.1,0.9-0.2,1.4-0.2c2.5,0,4.6,2,4.6,4.6c0,2.5-2,4.6-4.6,4.6c-1.4,0-2.7-0.7-3.5-1.7c-0.5,0.8-1.4,1.4-2.5,1.4
		c-1,0-1.8-0.5-2.4-1.2c-0.4,0.9-1.3,1.5-2.3,1.5c-0.9,0-1.7-0.5-2.2-1.2c-0.2,0.7-0.9,1.2-1.7,1.2c-1,0-1.8-0.8-1.8-1.8
		C81.3,66.8,82.1,66,83.1,66z M98.4,84.2v34h-9v-34H98.4z M77.3,72.3h9v45.9h-9V72.3z M64.1,84.2h9v34h-9V84.2z M50.8,164.9l9-21.5
		h80.9l9,21.5H50.8z M150.8,147.2h-5.4v-7.5H55.1l0,7.5h-5.3v-26.3h101.1V147.2z"/>
</g>
<g>
	<path d="M101.1,151.2C101.1,151.2,101.1,151.2,101.1,151.2c0.1-0.1,0.1-0.2,0.1-0.2c0.4-0.8,0.8-1.7,1.2-2.5c0-0.1,0.1-0.2,0.1-0.3
		c0-0.1,0.1-0.2,0.1-0.2c0-0.1,0-0.1,0-0.2c0-0.1-0.1-0.1-0.1-0.2c0,0-0.1-0.1-0.1-0.1c-0.1,0-0.1-0.1-0.2-0.1c-0.1,0-0.2,0-0.3-0.1
		c-0.1,0-0.3,0-0.4,0c0,0,0,0,0,0c0,0,0,0,0,0c0,0,0,0,0,0c0-0.1,0-0.2,0-0.3c0-0.1,0-0.1,0.1-0.1c0.4,0,0.8,0,1.2,0
		c0.8,0,1.5,0,2.3,0c0,0,0.1,0,0.1,0c0,0,0,0,0,0c0,0,0,0,0,0c0,0.1,0,0.2,0,0.3c0,0,0,0,0,0c0,0,0,0,0,0c-0.1,0-0.1,0-0.2,0
		c-0.5,0.1-0.9,0.3-1.3,0.6c-0.1,0.1-0.2,0.2-0.3,0.3c0,0-0.1,0.1-0.1,0.1c-0.3,0.6-0.5,1.1-0.8,1.7c-0.3,0.6-0.6,1.2-0.9,1.9
		c-0.1,0.1-0.1,0.1,0,0.2c0.2,0.4,0.3,0.8,0.5,1.2c0.4,1,0.9,2,1.3,3c0.1,0.1,0.1,0.3,0.2,0.4c0,0,0,0,0,0c0,0,0,0,0,0c0,0,0,0,0,0
		c0,0,0,0,0,0c0.1-0.2,0.2-0.5,0.3-0.7c0.8-1.7,1.5-3.5,2.3-5.2c0.3-0.8,0.7-1.5,1-2.3c0,0,0-0.1,0-0.1c0,0,0-0.1-0.1-0.1
		c-0.1-0.2-0.2-0.3-0.3-0.4c-0.1-0.1-0.3-0.2-0.5-0.2c-0.2-0.1-0.3-0.1-0.5-0.1c0,0,0,0,0,0c0,0,0,0,0,0c0,0,0,0,0,0
		c0-0.1,0-0.2,0-0.3c0,0,0,0,0,0c0,0,0,0,0,0c0,0,0,0,0.1,0c0.2,0,0.3,0,0.5,0c0.6,0,1.2,0,1.8,0c0.5,0,0.9,0,1.4,0
		c0.1,0,0.1,0,0.1,0.1c0,0.1,0,0.2,0,0.2c0,0,0,0,0,0c0,0,0,0,0,0c0,0-0.1,0-0.1,0c-0.2,0-0.4,0.1-0.6,0.1c-0.3,0.1-0.5,0.3-0.6,0.5
		c-0.1,0.2-0.2,0.3-0.3,0.5c-0.1,0.1-0.1,0.3-0.2,0.4c-0.5,1.2-1.1,2.4-1.6,3.6c-0.6,1.4-1.2,2.8-1.9,4.3c-0.3,0.8-0.7,1.6-1,2.4
		c0,0,0,0.1,0,0.1c0,0,0,0,0,0c-0.1,0-0.3,0-0.4,0c0,0,0,0,0-0.1c-0.1-0.2-0.1-0.3-0.2-0.5c-0.5-1.2-1-2.4-1.5-3.6
		c-0.2-0.5-0.4-1-0.7-1.5c0,0,0,0,0-0.1c0,0,0,0,0,0c0,0,0,0,0,0.1c-0.1,0.2-0.2,0.5-0.4,0.7c-0.4,0.8-0.8,1.5-1.2,2.3
		c-0.4,0.8-0.8,1.6-1.2,2.4c0,0.1-0.1,0.1-0.1,0.2c0,0,0,0,0,0.1c0,0,0,0-0.1,0c-0.1,0-0.2,0-0.3,0c0,0,0,0,0,0c0,0-0.1,0-0.1,0
		c0,0,0,0,0-0.1c-0.1-0.3-0.3-0.6-0.4-1c-0.5-1.1-0.9-2.2-1.4-3.2c-0.6-1.3-1.1-2.6-1.7-3.8c-0.2-0.6-0.5-1.1-0.7-1.7
		c0-0.1-0.1-0.2-0.2-0.3c-0.3-0.5-0.7-0.9-1.1-1.3c-0.1-0.1-0.2-0.2-0.3-0.2c-0.1,0-0.1-0.1-0.2-0.1c-0.1-0.1-0.3-0.1-0.4-0.1
		c0,0,0,0-0.1,0c0,0,0,0,0,0c0-0.1,0-0.2,0-0.4c0,0,0,0,0,0c0,0,0,0,0,0c0,0,0,0,0,0c0,0,0.1,0,0.1,0c1.4,0,2.8,0,4.2,0
		c0.2,0,0.3,0,0.5,0c0,0,0,0,0.1,0c0,0,0,0,0,0c0,0.1,0,0.2,0,0.4c0,0,0,0,0,0c-0.1,0-0.1,0-0.2,0c-0.2,0-0.4,0.1-0.7,0.2
		c-0.1,0-0.2,0.1-0.2,0.1c0,0-0.1,0.1-0.1,0.1c0,0-0.1,0.1-0.1,0.1c-0.1,0.1-0.1,0.3,0,0.4c0,0,0,0,0,0.1c0.3,0.6,0.5,1.2,0.8,1.8
		c0.6,1.4,1.2,2.9,1.9,4.3c0.3,0.8,0.7,1.5,1,2.3c0,0.1,0.1,0.2,0.1,0.2c0,0,0,0,0,0c0,0,0,0,0-0.1c0.4-0.7,0.7-1.4,1.1-2.1
		c0.3-0.7,0.7-1.3,1-2c0,0,0,0,0-0.1c0,0,0,0,0-0.1c-0.1-0.3-0.2-0.5-0.4-0.8c-0.3-0.7-0.6-1.4-0.9-2.1c-0.2-0.5-0.4-1-0.7-1.5
		c-0.1-0.1-0.1-0.2-0.2-0.3c-0.1-0.1-0.2-0.3-0.3-0.4c-0.1-0.1-0.2-0.1-0.3-0.2c-0.1,0-0.2-0.1-0.4-0.1c-0.2,0-0.4,0-0.6-0.1
		c0,0,0,0-0.1,0c0,0,0,0,0,0c0-0.1,0-0.1,0-0.2c0-0.1,0-0.1,0-0.2c0,0,0,0,0,0c0,0,0,0,0,0c0,0,0.1,0,0.1,0c0.3,0,0.5,0,0.8,0
		c0.5,0,0.9,0,1.4,0c0.6,0,1.3,0,1.9,0c0,0,0.1,0,0.1,0c0,0,0,0,0,0c0,0.1,0,0.2,0,0.3c0,0,0,0,0,0c-0.1,0-0.1,0-0.2,0
		c-0.1,0-0.2,0-0.3,0.1c-0.1,0-0.1,0-0.2,0.1c0,0-0.1,0.1-0.1,0.1c-0.1,0.1-0.1,0.2-0.1,0.4c0,0.1,0,0.1,0.1,0.2
		c0.1,0.1,0.1,0.3,0.2,0.4c0.2,0.5,0.4,0.9,0.6,1.4C100.7,150.3,100.8,150.7,101.1,151.2C101,151.1,101,151.2,101.1,151.2z"/>
</g>
</svg>
